<svg width="64" height="64" viewBox="0 0 64 64" fill="none" xmlns="http://www.w3.org/2000/svg">
<g clip-path="url(#clip0_845_3352)">
<g clip-path="url(#clip1_845_3352)">
<path d="M18.5 10V4.5H45V10H18.5Z" fill="url(#paint0_linear_845_3352)"/>
<path d="M18.5 59.5V54H45V59.5H18.5Z" fill="url(#paint1_linear_845_3352)"/>
<path d="M50.6663 21.3334V42.6667C50.6663 43.3739 50.3854 44.0522 49.8853 44.5523C49.3852 45.0524 48.7069 45.3334 47.9997 45.3334H15.9997C15.2924 45.3334 14.6142 45.0524 14.1141 44.5523C13.614 44.0522 13.333 43.3739 13.333 42.6667V21.3334C13.333 20.6261 13.614 19.9478 14.1141 19.4477C14.6142 18.9476 15.2924 18.6667 15.9997 18.6667H47.9997C48.7069 18.6667 49.3852 18.9476 49.8853 19.4477C50.3854 19.9478 50.6663 20.6261 50.6663 21.3334Z" stroke="white" stroke-width="2.5" stroke-linecap="round" stroke-linejoin="round"/>
<path d="M18.667 58.6666V56C18.667 55.2927 18.9479 54.6145 19.448 54.1144C19.9481 53.6143 20.6264 53.3333 21.3337 53.3333H42.667C43.3742 53.3333 44.0525 53.6143 44.5526 54.1144C45.0527 54.6145 45.3337 55.2927 45.3337 56V58.6666" stroke="white" stroke-width="2.5" stroke-linecap="round" stroke-linejoin="round"/>
<path d="M45.3337 5.33331V7.99998C45.3337 8.70722 45.0527 9.3855 44.5526 9.8856C44.0525 10.3857 43.3742 10.6666 42.667 10.6666H21.3337C20.6264 10.6666 19.9481 10.3857 19.448 9.8856C18.9479 9.3855 18.667 8.70722 18.667 7.99998V5.33331" stroke="white" stroke-width="2.5" stroke-linecap="round" stroke-linejoin="round"/>
</g>
</g>
<defs>
<linearGradient id="paint0_linear_845_3352" x1="18.5" y1="4.5" x2="17.0579" y2="6.91345" gradientUnits="userSpaceOnUse">
<stop stop-color="#CCFF02"/>
<stop offset="1" stop-color="#59FFCD"/>
</linearGradient>
<linearGradient id="paint1_linear_845_3352" x1="18.5" y1="54" x2="17.0579" y2="56.4134" gradientUnits="userSpaceOnUse">
<stop stop-color="#CCFF02"/>
<stop offset="1" stop-color="#59FFCD"/>
</linearGradient>
<clipPath id="clip0_845_3352">
<rect width="64" height="64" fill="white"/>
</clipPath>
<clipPath id="clip1_845_3352">
<rect width="64" height="64" fill="white"/>
</clipPath>
</defs>
</svg>