<svg width="64" height="64" viewBox="0 0 64 64" fill="none" xmlns="http://www.w3.org/2000/svg">
<g clip-path="url(#clip0_845_3368)">
<path d="M44.5 14L31.5 22L32.5 35L45 27.5L44.5 14Z" fill="url(#paint0_linear_845_3368)"/>
<path d="M59 37L46 45L47 58L59.5 50.5L59 37Z" fill="url(#paint1_linear_845_3368)"/>
<path d="M32 37L19 45L20 58L32.5 50.5L32 37Z" fill="url(#paint2_linear_845_3368)"/>
<path d="M18.6663 44L5.33301 36L18.6663 28L31.9997 36V50.6667L18.6663 58.6667V44Z" stroke="white" stroke-width="2.5" stroke-linecap="round" stroke-linejoin="round"/>
<path d="M5.33301 36V50.6667L18.6663 58.6667" stroke="white" stroke-width="2.5" stroke-linecap="round" stroke-linejoin="round"/>
<path d="M18.667 44.12L32.0003 36.04" stroke="white" stroke-width="2.5" stroke-linecap="round" stroke-linejoin="round"/>
<path d="M45.3333 44L32 36L45.3333 28L58.6667 36V50.6667L45.3333 58.6667V44Z" stroke="white" stroke-width="2.5" stroke-linecap="round" stroke-linejoin="round"/>
<path d="M32 50.6667L45.3333 58.6667" stroke="white" stroke-width="2.5" stroke-linecap="round" stroke-linejoin="round"/>
<path d="M45.333 44L58.6663 36" stroke="white" stroke-width="2.5" stroke-linecap="round" stroke-linejoin="round"/>
<path d="M32.0003 36V21.3333L18.667 13.3333L32.0003 5.33331L45.3337 13.3333V28" stroke="white" stroke-width="2.5" stroke-linecap="round" stroke-linejoin="round"/>
<path d="M18.667 13.4133V27.96" stroke="white" stroke-width="2.5" stroke-linecap="round" stroke-linejoin="round"/>
<path d="M32 21.3333L45.3333 13.3333" stroke="white" stroke-width="2.5" stroke-linecap="round" stroke-linejoin="round"/>
</g>
<defs>
<linearGradient id="paint0_linear_845_3368" x1="31.5" y1="14" x2="28.8403" y2="14.5939" gradientUnits="userSpaceOnUse">
<stop stop-color="#CCFF02"/>
<stop offset="1" stop-color="#59FFCD"/>
</linearGradient>
<linearGradient id="paint1_linear_845_3368" x1="46" y1="37" x2="43.3403" y2="37.5939" gradientUnits="userSpaceOnUse">
<stop stop-color="#CCFF02"/>
<stop offset="1" stop-color="#59FFCD"/>
</linearGradient>
<linearGradient id="paint2_linear_845_3368" x1="19" y1="37" x2="16.3403" y2="37.5939" gradientUnits="userSpaceOnUse">
<stop stop-color="#CCFF02"/>
<stop offset="1" stop-color="#59FFCD"/>
</linearGradient>
<clipPath id="clip0_845_3368">
<rect width="64" height="64" fill="white"/>
</clipPath>
</defs>
</svg>