<svg width="64" height="64" viewBox="0 0 64 64" fill="none" xmlns="http://www.w3.org/2000/svg">
<g clip-path="url(#clip0_845_3318)">
<g clip-path="url(#clip1_845_3318)">
<path d="M15.8164 18.496L19.2164 29.8266M34.1684 44.784L45.5044 48.184" stroke="white" stroke-width="2.5" stroke-linecap="round" stroke-linejoin="round"/>
<path d="M31.1543 32.8453L46.5116 17.488" stroke="white" stroke-width="2.5" stroke-linecap="round" stroke-linejoin="round"/>
<path d="M10.667 14.6667C10.667 15.192 10.7705 15.7121 10.9715 16.1974C11.1725 16.6827 11.4671 17.1237 11.8386 17.4951C12.21 17.8665 12.651 18.1612 13.1363 18.3622C13.6216 18.5632 14.1417 18.6667 14.667 18.6667C15.1923 18.6667 15.7124 18.5632 16.1977 18.3622C16.683 18.1612 17.124 17.8665 17.4954 17.4951C17.8669 17.1237 18.1615 16.6827 18.3625 16.1974C18.5635 15.7121 18.667 15.192 18.667 14.6667C18.667 14.1414 18.5635 13.6213 18.3625 13.136C18.1615 12.6507 17.8669 12.2097 17.4954 11.8383C17.124 11.4668 16.683 11.1722 16.1977 10.9712C15.7124 10.7701 15.1923 10.6667 14.667 10.6667C14.1417 10.6667 13.6216 10.7701 13.1363 10.9712C12.651 11.1722 12.21 11.4668 11.8386 11.8383C11.4671 12.2097 11.1725 12.6507 10.9715 13.136C10.7705 13.6213 10.667 14.1414 10.667 14.6667Z" stroke="white" stroke-width="2.5" stroke-linecap="round" stroke-linejoin="round"/>
<path d="M45.333 14.6667C45.333 15.7276 45.7544 16.745 46.5046 17.4951C47.2547 18.2453 48.2721 18.6667 49.333 18.6667C50.3939 18.6667 51.4113 18.2453 52.1614 17.4951C52.9116 16.745 53.333 15.7276 53.333 14.6667C53.333 13.6058 52.9116 12.5884 52.1614 11.8383C51.4113 11.0881 50.3939 10.6667 49.333 10.6667C48.2721 10.6667 47.2547 11.0881 46.5046 11.8383C45.7544 12.5884 45.333 13.6058 45.333 14.6667Z" stroke="white" stroke-width="2.5" stroke-linecap="round" stroke-linejoin="round"/>
<path d="M45.333 49.3333C45.333 50.3942 45.7544 51.4116 46.5046 52.1617C47.2547 52.9119 48.2721 53.3333 49.333 53.3333C50.3939 53.3333 51.4113 52.9119 52.1614 52.1617C52.9116 51.4116 53.333 50.3942 53.333 49.3333C53.333 48.2724 52.9116 47.255 52.1614 46.5049C51.4113 45.7547 50.3939 45.3333 49.333 45.3333C48.2721 45.3333 47.2547 45.7547 46.5046 46.5049C45.7544 47.255 45.333 48.2724 45.333 49.3333Z" stroke="white" stroke-width="2.5" stroke-linecap="round" stroke-linejoin="round"/>
<path d="M10.667 41.3333C10.667 44.5159 11.9313 47.5682 14.1817 49.8186C16.4321 52.069 19.4844 53.3333 22.667 53.3333C25.8496 53.3333 28.9018 52.069 31.1523 49.8186C33.4027 47.5682 34.667 44.5159 34.667 41.3333C34.667 38.1507 33.4027 35.0985 31.1523 32.848C28.9018 30.5976 25.8496 29.3333 22.667 29.3333C19.4844 29.3333 16.4321 30.5976 14.1817 32.848C11.9313 35.0985 10.667 38.1507 10.667 41.3333Z" fill="url(#paint0_linear_845_3318)" stroke="white" stroke-width="2.5" stroke-linecap="round" stroke-linejoin="round"/>
</g>
</g>
<defs>
<linearGradient id="paint0_linear_845_3318" x1="10.667" y1="29.3333" x2="6.23736" y2="30.8719" gradientUnits="userSpaceOnUse">
<stop stop-color="#CCFF02"/>
<stop offset="1" stop-color="#59FFCD"/>
</linearGradient>
<clipPath id="clip0_845_3318">
<rect width="64" height="64" fill="white"/>
</clipPath>
<clipPath id="clip1_845_3318">
<rect width="64" height="64" fill="white"/>
</clipPath>
</defs>
</svg>